/* XPM */
static char *resdasdasasd12311eqdafsault[] = {
/* columns rows colors chars-per-pixel */
"16 16 6 1 ",
"  c black",
". c #ED1C24",
"X c #596886",
"o c #C0CCDC",
"O c white",
"+ c None",
/* pixels */
"+++++++    +++++",
"++++++ oOOo ++++",
"+++++ oooOoo +++",
"+++++ oooooo +++",
"+++++ oXXooo +++",
"+++++ XXXXOo +++",
"++++++ XoX.X +++",
"+++++++ oX.X +++",
"+++++++ XOOo +++",
"++++++ ooX +++++",
"+++++ XoOo +++++",
"+++++ X  o +++++",
"+++++ oo X +++++",
"+++++ oo X +++++",
"++++++  Xo +++++",
"++++++++ o +++++"
};
