/* XPM */
static char *_00asdasdasdsgeqfdsds6[] = {
/* columns rows colors chars-per-pixel */
"16 16 16 1 ",
"  c #3F7E3B",
". c #987258",
"X c #A77E5D",
"o c #5A9A53",
"O c #61A658",
"+ c #7EBD6A",
"@ c #84CA6B",
"# c #87CD6D",
"$ c #89D06E",
"% c #8ED372",
"& c #4E7BEF",
"* c #5A9AEE",
"= c #5DC3F0",
"- c #71C9F3",
"; c #AEDEFF",
": c #D0E8F8",
/* pixels */
"--===&;.XOo+%##%",
"-====*;XOo+%%%%$",
"   =*:  oo%%%%%$",
"+++o  +++%%%%%%%",
"####++#%@#%%%%%$",
"##%%%%@@@@@#%$%#",
"#%%%%%%#@@@@$$##",
"$%%%%%%$@@@@@$$@",
"$$%%%%%#%$@@@@#@",
"@$%%%#@$%$%@$$$@",
"@@$%%%%%%%$%$$$$",
"@#%%%%%%%##%%$$$",
"#%%%%%%%%##$$%$@",
"@@@#$$%%@@##$@@@",
"$$@@@$#######@@@",
"$$$@@@@########$"
};
