/* XPM */
static char *resxu64279181ult[] = {
/* columns rows colors chars-per-pixel */
"16 16 5 1 ",
"  c #5DC3F0",
". c #71C9F3",
"X c #85D0F7",
"o c #AEDEFF",
"O c #D0E8F8",
/* pixels */
"..         ..  .",
".    ..  .....  ",
" XoOOoX.........",
".   .... .XXX.. ",
" .     . XXXXX  ",
". ....  XoOOoo  ",
" ........   .. .",
"........ ... .. ",
"..XooOOOOoo     ",
" ....       ..XX",
"X ..  ..   ..XXX",
"   XX.... oOOOoo",
"  XXXX...   ... ",
" ooOOOoo        ",
"..              ",
"...            ."
};
