/* XPM */
static char *resu7c19bc17lt[] = {
/* columns rows colors chars-per-pixel */
"16 16 5 1 ",
"  c #5DC3F0",
". c #71C9F3",
"X c #85D0F7",
"o c #AEDEFF",
"O c #D0E8F8",
/* pixels */
"..         ..  .",
".    ..  .....  ",
" ooOOoo.........",
".   .... .XXX.. ",
" .     . XXXXX  ",
". ....  ooOOoo  ",
" ........   .. .",
"........ ... .. ",
".XooOOOOOoo     ",
" ....       ..XX",
"X ..  ..   ..XXX",
"   XX.... oOOOoo",
"  XXXX...   ... ",
" oOOOOOo        ",
"..              ",
"...            ."
};
