/* XPM */
static char *2222re2sul2t[] = {
/* columns rows colors chars-per-pixel */
"16 16 5 1 ",
"  c black",
". c #596886",
"X c #C0CCDC",
"o c white",
"O c None",
/* pixels */
"OOOOOO    OOOOOO",
"OOOOO XooX OOOOO",
"OOOO XXXoXX OOOO",
"OOOO XXXXXX OOOO",
"OOOO XXXXXX OOOO",
"OOOO .XXXX. OOOO",
"OOOO ...... OOOO",
"OOOO ...... OOOO",
"OOOOO   .. OOOOO",
"OOOO     .o OOOO",
"OOO .X..XoX OOOO",
"OOO ..XXX.X. OOO",
"OOO    .. .X OOO",
"OOOO  XX  XX OOO",
"OOOOO X. .  OOOO",
"OOOOOO     OOOOO"
};
