/* XPM */
static char *_011231sadasd01[] = {
/* columns rows colors chars-per-pixel */
"16 16 21 1 ",
"  c #3F7E3B",
". c #5E4038",
"X c #7A5645",
"o c #88644D",
"O c #987258",
"+ c #A77E5D",
"@ c #5A9A53",
"# c #61A658",
"$ c #7EBD6A",
"% c #808756",
"& c #84CA6B",
"* c #87CD6D",
"= c #89D06E",
"- c #8ED372",
"; c #4E7BEF",
": c #5A9AEE",
"> c #5DC3F0",
", c #71C9F3",
"< c #B7A89B",
"1 c #AEDEFF",
"2 c #D0E8F8",
/* pixels */
",,>>>;12+O@#$**-",
",>>>::2<+O@#$--=",
"  >>;:2<OO@##$-=",
"#@ ..:2<OOO@##$$",
"*$#@@..1oOOO@@##",
"**-$@@@X<oOXO@@@",
"*---$@@O2<XXOO+%",
"=----$@@>21<oO++",
"==---$#@<:>121O+",
"&=--$###<>;:1122",
"&&=-$@#+1>;;;:::",
"&*-$#@@<2>;;;;;;",
"*--$#@o21:;:;;;;",
"&&&*$#@2>;:>>>>>",
"==&&$@@21;:>>>>>",
"===&$@#<2:;>>>>,"
};
