/* XPM */
static char *aaa3402112113[] = {
/* columns rows colors chars-per-pixel */
"16 16 22 1 ",
"  c #3F7E3B",
". c #5E4038",
"X c #6F4E41",
"o c #7A5645",
"O c #88644D",
"+ c #987258",
"@ c #A77E5D",
"# c #5A9A53",
"$ c #61A658",
"% c #7EBD6A",
"& c #808756",
"* c #84CA6B",
"= c #87CD6D",
"- c #89D06E",
"; c #8ED372",
": c #4E7BEF",
"> c #5A9AEE",
", c #5DC3F0",
"< c #71C9F3",
"1 c #B7A89B",
"2 c #AEDEFF",
"3 c #D0E8F8",
/* pixels */
"<<,,,:2+@+#$%==;",
"<,,,>21@@+#$%;;-",
"  ,,:31@++#$$%;-",
"$# ..31++++#$$%%",
"=%$##..1O+++##$$",
"==;%###.OO+o+###",
"=;;;%##o1Ooo++@&",
"-;;;;%##31XOO+@@",
"--;;;%$#O231O++@",
"*-;;%$$$O2>33231",
"**-;%#$@@3:::>23",
"*=;%$##@13::::::",
"=;;%$#O+3>::::::",
"***=%$#O3>:,,,::",
"--**%##+3,>,,,,,",
"---*%#$+13:,,,,<"
};
