/* XPM */
static char *r1e1su123123123123lt[] = {
/* columns rows colors chars-per-pixel */
"16 16 5 1 ",
"  c black",
". c #BE4A2F",
"X c #E4A672",
"o c white",
"O c None",
/* pixels */
"OOOOO      OOOOO",
"OOOO XXooXX OOOO",
"OOO XXXXoXXX OOO",
"OOO XXXXXXXX OOO",
"OOO XXXXXXXX OOO",
"OOO .oo..oo. OOO",
"OOO .  ..  . OOO",
"OOOO o .. o OOOO",
"OOOO  XooX  OOOO",
"OOOO .    . OOOO",
"OOO XX.  .Xo OOO",
"OO ..XXXXXX.. OO",
"O X. .X..X. .X O",
"O XX ...... XX O",
"OO   .X  X.   OO",
"OOOOO X  X OOOOO"
};
