/* XPM */
static char *resulmmmmmmmmmghffdt[] = {
/* columns rows colors chars-per-pixel */
"16 16 5 1 ",
"  c black",
". c #BE4A2F",
"X c #E4A672",
"o c white",
"O c None",
/* pixels */
"OOOOO      OOOOO",
"OOOO XXooXX OOOO",
"OOO XXXXoXXX OOO",
"OOO XXXXXXXX OOO",
"OOO XXXXXXXX OOO",
"OOO .Xoo.oX. OOO",
"OOO .   .    OOO",
"OOOO o .. o OOOO",
"OOOO  Xoo.  OOOO",
"OOO ...   . OOOO",
"OOO .X.  .X. OOO",
"OO . XXXXX oo OO",
"OO . XX... oX OO",
"OOO  .X. .   OOO",
"OOOO .XX . OOOOO",
"OOOOO XX  OOOOOO"
};
