/* XPM */
static char *_00wertyt423weferbvcds7[] = {
/* columns rows colors chars-per-pixel */
"16 16 12 1 ",
"  c #88644D",
". c #987258",
"X c #A77E5D",
"o c #BB916F",
"O c #D4A77E",
"+ c #4E7BEF",
"@ c #5A9AEE",
"# c #5DC3F0",
"$ c #71C9F3",
"% c #85D0F7",
"& c #AEDEFF",
"* c #D0E8F8",
/* pixels */
"$$#########$$##$",
"$####$$##$$$$$##",
"#####$$XX$$$$$$$",
"$###$$XOOX%%%$$#",
"#$###XoOOOX%%%##",
"$#$$$XOOOOX%%###",
"#$$$.oOOooo.$$#$",
"$$$$.XOooOO.#$$#",
"$$$& XXoOOO &###",
"#$$@&oooOOo&@$%%",
"%#$++&****&++%%%",
"###++++++++++$%%",
"##%%@++++++@$$$#",
"###%%#$$########",
"$$##############",
"$$$############$"
};
