/* XPM */
static char *_002134tgfsdadad0[] = {
/* columns rows colors chars-per-pixel */
"16 16 12 1 ",
"  c #987258",
". c #A77E5D",
"X c #BB916F",
"o c #D4A77E",
"O c #4E7BEF",
"+ c #5A9AEE",
"@ c #5DC3F0",
"# c #71C9F3",
"$ c #B7A89B",
"% c #85D0F7",
"& c #AEDEFF",
"* c #D0E8F8",
/* pixels */
"##@@@@@@@@@##@@#",
"#@@@@##@@#####@@",
"@@@@@##..#######",
"#@@@##.oo.%%%##@",
"@#@@@.Xooo.%%%@@",
"#@###.oooo.%%@@@",
"@### XooXXX ##@#",
"###& .oXXoo &##@",
"###&$..Xooo$&@@@",
"@##+&$XXoo$&+#%%",
"%@#OO&****&OO%%%",
"@@@+OOOOOOOO+#%%",
"@@%%+OOOOOO+###@",
"@@@%%@##@@@@@@@@",
"##@@@@@@@@@@@@@@",
"###@@@@@@@@@@@@#"
};
