/* XPM */
static char *_0213213123aasdasdasd04[] = {
/* columns rows colors chars-per-pixel */
"16 16 11 1 ",
"  c #A77E5D",
". c #BB916F",
"X c #D4A77E",
"o c #4E7BEF",
"O c #5A9AEE",
"+ c #5DC3F0",
"@ c #71C9F3",
"# c #B7A89B",
"$ c #85D0F7",
"% c #AEDEFF",
"& c #D0E8F8",
/* pixels */
"@@+++++++++@@++@",
"@++++@@++@@@@@++",
"+++++@@  @@@@@@@",
"@+++@@ XX $$$@@+",
"+@+++ .XXX $$$++",
"@+@@% XXXX %$+++",
"+@@&#.XX...#&@+@",
"@@@%# X..XX#%@@+",
"@@@%&# .XX#&%+++",
"+@@O+&&&&&&+O@$$",
"$+@OoO%%%%OoO$$$",
"++++OooooooO+@$$",
"++$$++OOOO++@@@+",
"+++$$+@@++++++++",
"@@++++++++++++++",
"@@@++++++++++++@"
};
