/* XPM */
static char *reszzzzzzzzzzzzzsult[] = {
/* columns rows colors chars-per-pixel */
"16 16 5 1 ",
"  c #403828",
". c #754831",
"X c #A37442",
"o c #BF905E",
"O c #DBAE78",
/* pixels */
"................",
".            Xo.",
".            Xo.",
".            Xo.",
".            Xo.",
".            oo.",
".            oX.",
".            oO.",
".             o.",
".             o.",
".              .",
".              .",
".              .",
".              .",
".              .",
"................"
};
