/* XPM */
static char *rescccccvvcxbxcult[] = {
/* columns rows colors chars-per-pixel */
"16 16 2 1 ",
"  c #403828",
". c #754831",
/* pixels */
"................",
".              .",
".              .",
".              .",
".              .",
".              .",
".              .",
".              .",
".              .",
".              .",
".              .",
".              .",
".              .",
".              .",
".              .",
"................"
};
