/* XPM */
static char *reszxcvf21313123ult[] = {
/* columns rows colors chars-per-pixel */
"16 16 8 1 ",
"  c #D2720E",
". c #FBA60B",
"X c #F8A80B",
"o c #FAC914",
"O c #FBE633",
"+ c #FEFF73",
"@ c #FFFED2",
"# c None",
/* pixels */
"################",
"################",
"#######.. ######",
"#####XX+OX@ ####",
"####X+OOO@@@ ###",
"####XOo XO@@ ###",
"###X+o ++o@OX ##",
"###XO@X@@XoOX ##",
"###X@@X@@XoOX ##",
"###@@@X@+XoOX ##",
"###@@@ ++XoOX ##",
"####@OoXXoOX ###",
"#### ooooOOX ###",
"#####  OOXX ####",
"#######XX ######",
"################"
};
