/* XPM */
static char *resulmmmmmmmmm12231321t[] = {
/* columns rows colors chars-per-pixel */
"16 16 9 1 ",
"  c #D2720E",
". c #F9A70B",
"X c #FBA60B",
"o c #FAC914",
"O c #FAC915",
"+ c #FBE633",
"@ c #FEFF73",
"# c #FFFED2",
"$ c None",
/* pixels */
"$$$$$$$$$$$$$$$$",
"$$$$$$$$$$$$$$$$",
"$$$$$$$o  $$$$$$",
"$$$$$$+@+XX$$$$$",
"$$$$$$@o+XX$$$$$",
"$$$$$+. +@oo$$$$",
"$$$$$o o.+oo$$$$",
"$$$$$o +.+oo$$$$",
"$$$$$o +.#XX$$$$",
"$$$$$o +##XX$$$$",
"$$$$$o +##XX$$$$",
"$$$$$oX##@XX$$$$",
"$$$$$$##@  $$$$$",
"$$$$$$##@XX$$$$$",
"$$$$$$$O  $$$$$$",
"$$$$$$$$$$$$$$$$"
};
