/* XPM */
static char *resxczczq211132313213ult[] = {
/* columns rows colors chars-per-pixel */
"16 16 7 1 ",
"  c #D2720E",
". c #F8A80B",
"X c #FAC914",
"o c #FBE633",
"O c #FEFF73",
"+ c #FFFED2",
"@ c None",
/* pixels */
"@@@@@@@@@@@@@@@@",
"@@@@@@@@@@@@@@@@",
"@@@@@@@...@@@@@@",
"@@@@@@@ooo@@@@@@",
"@@@@@@@+++@@@@@@",
"@@@@@@@+++@@@@@@",
"@@@@@@@OOO@@@@@@",
"@@@@@@@OOO@@@@@@",
"@@@@@@@XXX@@@@@@",
"@@@@@@@XXX@@@@@@",
"@@@@@@@...@@@@@@",
"@@@@@@@...@@@@@@",
"@@@@@@@   @@@@@@",
"@@@@@@@...@@@@@@",
"@@@@@@@   @@@@@@",
"@@@@@@@@@@@@@@@@"
};
