/* XPM */
static char *resuvbbbbbbbbbbbbbxzlt[] = {
/* columns rows colors chars-per-pixel */
"16 16 10 1 ",
"  c #D2720E",
". c #FBA60B",
"X c #FAA70B",
"o c #F8A80B",
"O c #FAC914",
"+ c #FAC915",
"@ c #FBE633",
"# c #FEFF73",
"$ c #FFFED2",
"% c None",
/* pixels */
"%%%%%%%%%%%%%%%%",
"%%%%%%%%%%%%%%%%",
"%%%%%%%oo %%%%%%",
"%%%%%%$$ o %%%%%",
"%%%%%%OO O %%%%%",
"%%%%%$$ O o %%%%",
"%%%%%## O.+ %%%%",
"%%%%%## O.@ %%%%",
"%%%%%@@ O.@ %%%%",
"%%%%%@@ O.@ %%%%",
"%%%%%@@ O.# %%%%",
"%%%%%@@ O@. %%%%",
"%%%%%%OO O %%%%%",
"%%%%%%@@ X %%%%%",
"%%%%%%%oo %%%%%%",
"%%%%%%%%%%%%%%%%"
};
