/* XPM */
static char *resulnnnnnnzqeqet[] = {
/* columns rows colors chars-per-pixel */
"16 16 8 1 ",
"  c #D2720E",
". c #F8A80B",
"X c #FAC914",
"o c #FAC915",
"O c #FBE633",
"+ c #FEFF73",
"@ c #FFFED2",
"# c None",
/* pixels */
"################",
"################",
"#######X  ######",
"#####O  oo  ####",
"####@ XX..XX ###",
"####+ X.  .X ###",
"###@ X. ..O.X ##",
"###@ X. .XO.X ##",
"###@ X. .XO.X ##",
"###+ X. .XO.X ##",
"###+ X. .X+.O ##",
"####O X.OO.X ###",
"####+ XX..XO ###",
"#####O  XO  ####",
"#######X  ######",
"################"
};
