/* XPM */
static char *re377777777sult[] = {
/* columns rows colors chars-per-pixel */
"16 16 20 1 ",
"  c #6F4E41",
". c #7A5645",
"X c #88644D",
"o c #987258",
"O c #A77E5D",
"+ c #5A9A53",
"@ c #61A658",
"# c #7EBD6A",
"$ c #808756",
"% c #87CD6D",
"& c #89D06E",
"* c #8ED372",
"= c #4E7BEF",
"- c #5A9AEE",
"; c #5DC3F0",
": c #71C9F3",
"> c #B7A89B",
", c #85D0F7",
"< c #AEDEFF",
"1 c #D0E8F8",
/* pixels */
"::;;;=<oOo+@#%%*",
":;;;-<>OOo+@#**&",
";;;;=1>Ooo+@@#*&",
":;;;=1>oooo+@@##",
";:;;=-1>Xooo++@@",
":;::==<>XXo.o+++",
";:::===<>X..ooO$",
":::::==-1> XXoOO",
":::::-==-<1>XooO",
";::::;====-11<1>",
",;::;;:======-<1",
";;;,,:::-=======",
";;,,,,:::;-=====",
";;;,,;::;;;;;;==",
"::;;;;;;;;;;;;;;",
":::;;;;;;;;;;;;:"
};
