/* XPM */
static char * portal_xpm[] = {
"32 32 2 2",
"  	c None",
". 	c #FFFFFF",
". . . . . . . . . . . . . . . . . . . . . . . . . . . . . . . . ",
".                                                             . ",
".                                                             . ",
".                                                             . ",
".                                                             . ",
".                                                             . ",
".                                                             . ",
".                                                             . ",
".                                                             . ",
".                                                             . ",
".                                                             . ",
".                                                             . ",
".                                                             . ",
".                                                             . ",
".                                                             . ",
".                                                             . ",
".                                                             . ",
".                                                             . ",
".                                                             . ",
".                                                             . ",
".                                                             . ",
".                                                             . ",
".                                                             . ",
".                                                             . ",
".                                                             . ",
".                                                             . ",
".                                                             . ",
".                                                             . ",
".                                                             . ",
".                                                             . ",
".                                                             . ",
". . . . . . . . . . . . . . . . . . . . . . . . . . . . . . . . "};