/* XPM */
static char *_1576bc273194cc3b392f470d19d59fa[] = {
/* columns rows colors chars-per-pixel */
"16 16 15 1 ",
"  c #3F7E3B",
". c #A77E5D",
"X c #5A9A53",
"o c #61A658",
"O c #7EBD6A",
"+ c #84CA6B",
"@ c #87CD6D",
"# c #89D06E",
"$ c #8ED372",
"% c #4E7BEF",
"& c #5A9AEE",
"* c #5DC3F0",
"= c #71C9F3",
"- c #AEDEFF",
"; c #D0E8F8",
/* pixels */
"##++OXo.;-%==**=",
"$++#+OXo.;&===**",
"$#+@@OXX  ;&=   ",
"#@#@$$$OOO  XOOO",
"@@@@@@@$+@OO$$$#",
"@@$$$$+++++@$#$@",
"@$$$$$$@++++##@@",
"#$$$$$$#+++++##+",
"##$$$$$@$#++++@+",
"+#$$$@+#$#$+###+",
"++#$$$$$$$#$####",
"+@$$$$$$$@@$$###",
"@$$$$$$$$@@##$#+",
"+++@##$$++@@#+++",
"##+++#@@@@@@@+++",
"###++++@@@@@@@@#"
};
