/* XPM */
static char *re411111111sult[] = {
/* columns rows colors chars-per-pixel */
"16 16 19 1 ",
"  c #6F4E41",
". c #7A5645",
"X c #88644D",
"o c #987258",
"O c #A77E5D",
"+ c #5A9A53",
"@ c #61A658",
"# c #7EBD6A",
"$ c #84CA6B",
"% c #89D06E",
"& c #8ED372",
"* c #4E7BEF",
"= c #5A9AEE",
"- c #5DC3F0",
"; c #71C9F3",
": c #B7A89B",
"> c #85D0F7",
", c #AEDEFF",
"< c #D0E8F8",
/* pixels */
"%%$#@+oOo,*;;--;",
"&$$#@+oOO:,=;;--",
"&##@@+ooO:<*;;;;",
"#@@@+oooo:<*>;;-",
"@@@+oooX:<=*>>--",
"@@Oo.oXX:,**>---",
"OOoo..X:,***;;-;",
"OooXX :<=**;-;;-",
"oooX:<,=**=-----",
":<,<<=****--;;>>",
"<,=******--;;>>>",
"*******=;--;;;>>",
"*****=;;;---;;;-",
"**->>-;;--------",
";;--------------",
";;;------------;"
};
