/* XPM */
static char *rrrrresult[] = {
/* columns rows colors chars-per-pixel */
"16 16 6 1 ",
"  c black",
". c #ED1C24",
"X c #596886",
"o c #C0CCDC",
"O c white",
"+ c None",
/* pixels */
"+++++    +++++++",
"++++ oOOo ++++++",
"+++ oooOoo +++++",
"+++ oooooo +++++",
"+++ oooXXo +++++",
"+++ oOXXXX +++++",
"+++ X.XoX ++++++",
"+++ X.Xo +++++++",
"+++ oOOX +++++++",
"+++++ XoO ++++++",
"+++++ oooX +++++",
"+++++ o  X +++++",
"+++++ X oo +++++",
"+++++ X oo +++++",
"+++++ oX  ++++++",
"+++++ o ++++++++"
};
