/* XPM */
static char *resubvvadsaft2t141lt[] = {
/* columns rows colors chars-per-pixel */
"16 16 6 1 ",
"  c black",
". c #ED1C24",
"X c #596886",
"o c #C0CCDC",
"O c white",
"+ c None",
/* pixels */
"++++++    ++++++",
"+++++ oOOo +++++",
"++++ oooOoo ++++",
"++++ oooooo ++++",
"++++ oooooo ++++",
"++++ XoOooX ++++",
"++++ X.XX.X ++++",
"++++ X.XX.X ++++",
"+++++ oOOX +++++",
"++++ XX    +++++",
"++++ XX  XX  +++",
"+++ X ooooXOO ++",
"+++ X ooXX Oo ++",
"++++  oo X   +++",
"+++++ oo X +++++",
"++++++ o  ++++++"
};
