/* XPM */
static char *revcvvvvvvvvvvvzxcxsult[] = {
/* columns rows colors chars-per-pixel */
"16 16 6 1 ",
"  c black",
". c #ED1C24",
"X c #596886",
"o c #C0CCDC",
"O c white",
"+ c None",
/* pixels */
"++++++    ++++++",
"+++++ oOOo +++++",
"++++ oooOoo ++++",
"++++ oooooo ++++",
"++++ oooooo ++++",
"++++ XooOoX ++++",
"++++ X.XX.X ++++",
"++++ X.XX.X ++++",
"+++++ XOOo +++++",
"+++++    XX ++++",
"+++  XX  XX ++++",
"++ OOXoooo X +++",
"++ oO XXoo X +++",
"+++   X oo  ++++",
"+++++ X oo +++++",
"++++++  o ++++++"
};
