/* XPM */
static const char *sdsdsfsaasdadNA__[] = {
/* columns rows colors chars-per-pixel */
"16 16 20 1 ",
"  c #3F7E3B",
". c #5E4038",
"X c #7A5645",
"o c #88644D",
"O c #987258",
"+ c #A77E5D",
"@ c #5A9A53",
"# c #61A658",
"$ c #7EBD6A",
"% c #84CA6B",
"& c #87CD6D",
"* c #89D06E",
"= c #8ED372",
"- c #4E7BEF",
"; c #5A9AEE",
": c #5DC3F0",
"> c #71C9F3",
", c #B7A89B",
"< c #AEDEFF",
"1 c #D0E8F8",
/* pixels */
"**%$#@O+1;->>::>",
"=%%$#@O+1;->>>::",
"=$$##@OO1;-;>>  ",
"$###@OOO1;-.. @#",
"###@OOO,1..@@#$*",
"##+OXOo1X@@@$*=&",
"++OOXX1<O@@$**&&",
"+OO,,11;+@#$%**%",
"O,<11--,@#$%%%&%",
"<<:----,##@$***%",
"-------:+#@$****",
"-------<,@@#$***",
"-;:::;-;1o@@$=*%",
"::::::-;1@#$*%%%",
">>:::;-;1@@#$%%%",
">>>::-;1,#@$&&&*"
};
