/* XPM */
static const char *N1211ssaddsg__[] = {
/* columns rows colors chars-per-pixel */
"16 16 21 1 ",
"  c #3F7E3B",
". c #5E4038",
"X c #7A5645",
"o c #88644D",
"O c #987258",
"+ c #A77E5D",
"@ c #5A9A53",
"# c #61A658",
"$ c #7EBD6A",
"% c #84CA6B",
"& c #87CD6D",
"* c #89D06E",
"= c #8ED372",
"- c #4E7BEF",
"; c #5A9AEE",
": c #5DC3F0",
"> c #71C9F3",
", c #B7A89B",
"< c #85D0F7",
"1 c #AEDEFF",
"2 c #D0E8F8",
/* pixels */
"**%$#@O+21->>::>",
"=%%$#@O+,2:;>>::",
"=$$##@OO,21->>  ",
"$###@OOO,21.. @#",
"###@OOOo1..@@#$*",
"##+OXOo,X@@@$*=&",
"++OOXX,2O@@$**&&",
"+OOo,122+@#$%**%",
"OO12221+@#$%%%&%",
"2212:-1,##@$***%",
"21;---11+#@$****",
"------12,@@#$***",
"----;-;21o@@$=*%",
";;:<<;-22@#$*%%%",
">>:::;;22@@#$%%%",
">>>::-12,#@$&&&*"
};
